# xmcd
#
# Track frame offsets:
#  150
#  8361
#  15118
#  22402
#  38115
#  58497
#  79121
#  105264
#  119028
#  138874
#  156693
#  173114
#  188146
#  197327
#  210661
#  218855
#  231531
#  241696
#  255525
#  278226
#  282499
#
# Disc length: 3941 seconds
#
# Revision: 10
# Processed by: cddbd v1.4PL0 Copyright (c) Steve Scherf et al.
# Submitted via: AltoMP3_Maker 3.0
#
DISCID=290f6315
DTITLE=Varios - Prueba Esto Vol.2 [CD 1]
DYEAR=1900
DGENRE=
TTITLE0=Abrázame
TTITLE1=A
TTITLE2=B
TTITLE3=Fue mejor asi?
TTITLE4=Hoy
TTITLE5=+Red
TTITLE6=Stay in June
TTITLE7=Enterrado vivo
TTITLE8=Psycozis
TTITLE9=Innocence
TTITLE10=Estorbo
TTITLE11=Sin
TTITLE12=Broken Arms
TTITLE13=She Kill's Me
TTITLE14=Metal Goblins
TTITLE15=Fin del existir
TTITLE16=Aquí
TTITLE17=Rooly
TTITLE18=Aimeee observó el cielo
TTITLE19=Aimee quiza...
TTITLE20=Será mejor
EXTD=
EXTT0=
EXTT1=
EXTT2=
EXTT3=
EXTT4=
EXTT5=
EXTT6=
EXTT7=
EXTT8=
EXTT9=
EXTT10=
EXTT11=
EXTT12=
EXTT13=
EXTT14=
EXTT15=
EXTT16=
EXTT17=
EXTT18=
EXTT19=
EXTT20=
PLAYORDER=
